<?xml version="1.0"?>
<svg version="1.1" xmlns="http://www.w3.org/2000/svg" width="150px" height="56px" style=""><path fill="#0d87de" d="M26.6,47.4l0-18.8l-3-1.2l0-3.4l9.2-0.2l3.8,0c8,0,12.72,4.72,12.72,13.72s-5.2,14.48-13.32,14.48l-12.4,0l0-3.4z M32.8,47.2l3.32,0c3.88,0,6.48-2.28,6.48-9.48c0-6.72-2.28-9.12-6.2-9.12l-3.6,0l0,18.6z M73.1804,35.2l0,4.4l-8.08,0l0,7.6l7.16,0l0.92-3.28l3.6,0l0,8.08l-20.88,0l0-3.4l3-1.2l0-18.8l-3-1.2l0-3.4l9.2-0.2l11.2,0l0,7.72l-3.6,0l-1-2.92l-6.6,0l0,6.6l8.08,0z M81.9608,27.4l0-3.4l12.4-0.2l0,3.6l-2.96,1.16l3.68,11.48l1.28,4.92l1.28-4.72l3.96-11.64l-3.04-1.2l0-3.4l11.96-0.2l0,3.6l-2.92,1.2l-8.44,23.4l-6.4,0l-8.08-23.48z M128.9012,23.32c8,0,12.6,5.28,12.6,14.2c0,9-5.4,15-13.4,15s-12.4-5-12.4-14.4c0-9.2,5.08-14.8,13.2-14.8z M128.7012,28.32c-4,0-6.2,2.48-6.2,9.6c0,6.6,1.8,9.6,5.8,9.6s6.4-2.6,6.4-9.8c0-6.6-2-9.4-6-9.4z"/><path fill="#" d=""/></svg>
